<svg xmlns="http://www.w3.org/2000/svg" viewBox="0 0 1200 675" font-family="ui-sans-serif, system-ui, 'Segoe UI', sans-serif">
  <defs>
    <pattern id="dotsB5" width="30" height="30" patternUnits="userSpaceOnUse">
      <circle cx="1.2" cy="1.2" r="1.2" fill="#e3e2db"/>
    </pattern>
    <filter id="glowB5" x="-60%" y="-60%" width="220%" height="220%">
      <feGaussianBlur stdDeviation="8"/>
    </filter>
    <marker id="arrBlueB5" viewBox="0 0 10 10" refX="8" refY="5" markerWidth="7" markerHeight="7" orient="auto-start-reverse">
      <path d="M0,0 L10,5 L0,10 z" fill="#2a78d6"/>
    </marker>
  </defs>

  <rect width="1200" height="675" rx="24" fill="#fcfcfb"/>
  <rect width="1200" height="675" rx="24" fill="url(#dotsB5)"/>
  <rect x="1" y="1" width="1198" height="673" rx="23" fill="none" stroke="#0b0b0b" stroke-opacity="0.12" stroke-width="1.5"/>

  <text x="48" y="66" fill="#898781" font-size="16" letter-spacing="3">FIG. 05 — ASKING THE SYSTEM WHY</text>
  <text x="1152" y="112" fill="#6f6d67" font-size="17" font-style="italic" text-anchor="end">the answer is a path, not an explanation</text>

  <!-- background graph -->
  <g stroke="#dddbd3" stroke-width="1.4">
    <line x1="935" y1="175" x2="985" y2="280"/>
    <line x1="1065" y1="150" x2="985" y2="280"/>
    <line x1="1145" y1="220" x2="1120" y2="310"/>
    <line x1="985" y1="280" x2="1120" y2="310"/>
    <line x1="985" y1="280" x2="1040" y2="380"/>
    <line x1="1120" y1="310" x2="1160" y2="410"/>
    <line x1="1065" y1="150" x2="1145" y2="220"/>
    <line x1="145" y1="285" x2="175" y2="410"/>
  </g>
  <g fill="#f4f3f0" stroke="#dddbd3" stroke-width="1.4">
    <rect x="880" y="160" width="110" height="30" rx="8"/>
    <rect x="1010" y="135" width="110" height="30" rx="8"/>
    <rect x="1090" y="205" width="110" height="30" rx="8"/>
    <rect x="930" y="265" width="110" height="30" rx="8"/>
    <rect x="1065" y="295" width="110" height="30" rx="8"/>
    <rect x="985" y="365" width="110" height="30" rx="8"/>
    <rect x="90" y="270" width="110" height="30" rx="8"/>
    <rect x="120" y="395" width="110" height="30" rx="8"/>
  </g>

  <!-- lynx_why query -->
  <rect x="48" y="92" width="230" height="40" rx="20" fill="#eef5fd" stroke="#2a78d6" stroke-width="1.5"/>
  <text x="163" y="118" fill="#1c5cab" font-size="16" font-family="ui-monospace, Menlo, Consolas, monospace" text-anchor="middle">lynx_why(line 214)</text>
  <path d="M 110 136 C 55 300, 85 460, 130 550" fill="none" stroke="#2a78d6" stroke-width="1.6" stroke-dasharray="5 6" stroke-opacity="0.7" marker-end="url(#arrBlueB5)"/>

  <!-- provenance path -->
  <g stroke="#2a78d6" stroke-width="2.5" fill="none">
    <path d="M 328 545 C 338 520, 386 508, 398 489" marker-end="url(#arrBlueB5)"/>
    <path d="M 412 439 C 422 414, 472 402, 484 383" marker-end="url(#arrBlueB5)"/>
    <path d="M 502 333 C 512 308, 562 296, 574 277" marker-end="url(#arrBlueB5)"/>
    <path d="M 592 227 C 602 202, 652 190, 664 171" marker-end="url(#arrBlueB5)"/>
  </g>

  <g>
    <rect x="140" y="545" width="360" height="46" rx="10" fill="#2a78d6" fill-opacity="0.15" filter="url(#glowB5)"/>
    <rect x="140" y="545" width="360" height="46" rx="10" fill="#eef5fd" stroke="#2a78d6" stroke-width="2"/>
    <text x="320" y="574" fill="#164a86" font-size="16" font-family="ui-monospace, Menlo, Consolas, monospace" text-anchor="middle">line 214 · StartCaptureListener.kt</text>

    <rect x="330" y="439" width="150" height="46" rx="10" fill="#eef5fd" stroke="#2a78d6" stroke-width="2"/>
    <text x="405" y="468" fill="#164a86" font-size="16" font-family="ui-monospace, Menlo, Consolas, monospace" text-anchor="middle">handle()</text>

    <rect x="315" y="333" width="360" height="46" rx="10" fill="#eef5fd" stroke="#2a78d6" stroke-width="2"/>
    <text x="495" y="362" fill="#164a86" font-size="16" font-family="ui-monospace, Menlo, Consolas, monospace" text-anchor="middle">contract: StartCaptureRoute.handle</text>

    <rect x="410" y="227" width="350" height="46" rx="10" fill="#eef5fd" stroke="#2a78d6" stroke-width="2"/>
    <text x="585" y="256" fill="#164a86" font-size="17" text-anchor="middle">rule: never retry non-idempotent calls</text>

    <rect x="490" y="121" width="370" height="46" rx="10" fill="#eef5fd" stroke="#2a78d6" stroke-width="2"/>
    <text x="675" y="150" fill="#164a86" font-size="17" text-anchor="middle">requirement Q-12 · charge exactly once</text>
  </g>

  <!-- drift: code the layer doesn't know -->
  <g font-family="ui-monospace, Menlo, Consolas, monospace" font-size="15" text-anchor="middle">
    <rect x="920" y="462" width="120" height="38" rx="9" fill="#fdf3ed" stroke="#eb6834" stroke-width="1.5" stroke-dasharray="6 5"/>
    <text x="980" y="487" fill="#b34a17">helper()</text>
    <rect x="1030" y="510" width="146" height="38" rx="9" fill="#fdf3ed" stroke="#eb6834" stroke-width="1.5" stroke-dasharray="6 5"/>
    <text x="1103" y="535" fill="#b34a17">topic "cap-v2"</text>
    <rect x="900" y="556" width="120" height="38" rx="9" fill="#fdf3ed" stroke="#eb6834" stroke-width="1.5" stroke-dasharray="6 5"/>
    <text x="960" y="581" fill="#b34a17">Retry.kt</text>
  </g>
  <text x="1152" y="632" fill="#b34a17" font-size="16" text-anchor="end">drift — code the layer doesn't know (lynx_drift)</text>

  <!-- legend -->
  <g font-size="16" fill="#6f6d67">
    <line x1="48" y1="626" x2="86" y2="626" stroke="#2a78d6" stroke-width="3"/>
    <text x="96" y="632">provenance path</text>
    <line x1="256" y1="626" x2="294" y2="626" stroke="#dddbd3" stroke-width="2.5"/>
    <text x="304" y="632">graph edges</text>
  </g>
</svg>
