<svg xmlns="http://www.w3.org/2000/svg" viewBox="0 0 1200 560" font-family="ui-sans-serif, system-ui, 'Segoe UI', sans-serif">
  <defs>
    <pattern id="dots5" width="26" height="26" patternUnits="userSpaceOnUse">
      <circle cx="1" cy="1" r="1" fill="#222220"/>
    </pattern>
    <filter id="glow5" x="-60%" y="-60%" width="220%" height="220%">
      <feGaussianBlur stdDeviation="7"/>
    </filter>
    <marker id="arrBlue5" viewBox="0 0 10 10" refX="8" refY="5" markerWidth="7" markerHeight="7" orient="auto-start-reverse">
      <path d="M0,0 L10,5 L0,10 z" fill="#3987e5"/>
    </marker>
  </defs>

  <rect width="1200" height="560" rx="20" fill="#161615"/>
  <rect width="1200" height="560" rx="20" fill="url(#dots5)"/>
  <rect x="0.5" y="0.5" width="1199" height="559" rx="19.5" fill="none" stroke="#ffffff" stroke-opacity="0.08"/>

  <text x="48" y="58" fill="#898781" font-size="13" letter-spacing="3">FIG. 05 — ASKING THE SYSTEM WHY</text>
  <text x="1152" y="100" fill="#898781" font-size="13.5" font-style="italic" text-anchor="end">the answer is a path, not an explanation</text>

  <!-- background graph -->
  <g stroke="#33332f" stroke-width="1.2">
    <line x1="850" y1="163" x2="915" y2="253"/>
    <line x1="985" y1="133" x2="915" y2="253"/>
    <line x1="1105" y1="193" x2="1060" y2="273"/>
    <line x1="915" y1="253" x2="1060" y2="273"/>
    <line x1="915" y1="253" x2="975" y2="343"/>
    <line x1="1060" y1="273" x2="1115" y2="353"/>
    <line x1="985" y1="133" x2="1105" y2="193"/>
    <line x1="135" y1="253" x2="165" y2="363"/>
    <line x1="620" y1="294" x2="915" y2="253"/>
  </g>
  <g fill="#1b1b1a" stroke="#33332f">
    <rect x="800" y="150" width="100" height="26" rx="7"/>
    <rect x="935" y="120" width="100" height="26" rx="7"/>
    <rect x="1055" y="180" width="100" height="26" rx="7"/>
    <rect x="865" y="240" width="100" height="26" rx="7"/>
    <rect x="1010" y="260" width="100" height="26" rx="7"/>
    <rect x="925" y="330" width="100" height="26" rx="7"/>
    <rect x="1065" y="340" width="100" height="26" rx="7"/>
    <rect x="85" y="240" width="100" height="26" rx="7"/>
    <rect x="115" y="350" width="100" height="26" rx="7"/>
  </g>

  <!-- lynx_why query -->
  <rect x="48" y="86" width="200" height="32" rx="16" fill="#141a26" stroke="#3987e5"/>
  <text x="148" y="107" fill="#9cc3f0" font-size="13" font-family="ui-monospace, Menlo, Consolas, monospace" text-anchor="middle">lynx_why(line 214)</text>
  <path d="M 100 120 C 55 260, 90 400, 178 460" fill="none" stroke="#3987e5" stroke-width="1.3" stroke-dasharray="4 5" stroke-opacity="0.7" marker-end="url(#arrBlue5)"/>

  <!-- provenance path -->
  <g stroke="#3987e5" stroke-width="2" fill="none">
    <path d="M 336 450 C 344 430, 372 418, 384 404" marker-end="url(#arrBlue5)"/>
    <path d="M 396 364 C 404 344, 452 330, 464 316" marker-end="url(#arrBlue5)"/>
    <path d="M 476 276 C 484 256, 542 244, 554 228" marker-end="url(#arrBlue5)"/>
    <path d="M 566 188 C 574 168, 632 156, 644 140" marker-end="url(#arrBlue5)"/>
  </g>

  <g>
    <rect x="185" y="450" width="290" height="36" rx="9" fill="#3987e5" fill-opacity="0.3" filter="url(#glow5)"/>
    <rect x="185" y="450" width="290" height="36" rx="9" fill="#141a26" stroke="#3987e5" stroke-width="1.5"/>
    <text x="330" y="473" fill="#cfe0f6" font-size="12.5" font-family="ui-monospace, Menlo, Consolas, monospace" text-anchor="middle">line 214 · StartCaptureListener.kt</text>

    <rect x="330" y="364" width="120" height="36" rx="9" fill="#141a26" stroke="#3987e5" stroke-width="1.5"/>
    <text x="390" y="387" fill="#cfe0f6" font-size="12.5" font-family="ui-monospace, Menlo, Consolas, monospace" text-anchor="middle">handle()</text>

    <rect x="320" y="276" width="300" height="36" rx="9" fill="#141a26" stroke="#3987e5" stroke-width="1.5"/>
    <text x="470" y="299" fill="#cfe0f6" font-size="12.5" font-family="ui-monospace, Menlo, Consolas, monospace" text-anchor="middle">contract: StartCaptureRoute.handle</text>

    <rect x="405" y="188" width="310" height="36" rx="9" fill="#141a26" stroke="#3987e5" stroke-width="1.5"/>
    <text x="560" y="211" fill="#cfe0f6" font-size="13" text-anchor="middle">rule: never retry non-idempotent calls</text>

    <rect x="490" y="100" width="320" height="36" rx="9" fill="#141a26" stroke="#3987e5" stroke-width="1.5"/>
    <text x="650" y="123" fill="#cfe0f6" font-size="13" text-anchor="middle">requirement Q-12 · charge exactly once</text>
  </g>

  <!-- drift: code the layer doesn't know -->
  <g font-family="ui-monospace, Menlo, Consolas, monospace" font-size="12.5" text-anchor="middle">
    <rect x="900" y="420" width="100" height="30" rx="8" fill="#1f1a17" stroke="#d95926" stroke-dasharray="5 4"/>
    <text x="950" y="440" fill="#e8946b">helper()</text>
    <rect x="1020" y="442" width="124" height="30" rx="8" fill="#1f1a17" stroke="#d95926" stroke-dasharray="5 4"/>
    <text x="1082" y="462" fill="#e8946b">topic "cap-v2"</text>
    <rect x="928" y="474" width="100" height="30" rx="8" fill="#1f1a17" stroke="#d95926" stroke-dasharray="5 4"/>
    <text x="978" y="494" fill="#e8946b">Retry.kt</text>
  </g>
  <text x="1144" y="530" fill="#e8946b" font-size="13" text-anchor="end">drift — code the layer doesn't know (lynx_drift)</text>

  <!-- legend -->
  <g font-size="13" fill="#898781">
    <line x1="48" y1="516" x2="80" y2="516" stroke="#3987e5" stroke-width="2.5"/>
    <text x="90" y="521">provenance path</text>
    <line x1="232" y1="516" x2="264" y2="516" stroke="#33332f" stroke-width="2"/>
    <text x="274" y="521">graph edges</text>
  </g>
</svg>
